 <svg version="1.0" xmlns="http://www.w3.org/2000/svg" width="700.000000pt" height="700.000000pt" viewBox="0 0 700.000000 700.000000" preserveAspectRatio="xMidYMid meet">
<metadata>
Created by potrace 1.12, written by Peter Selinger 2001-2015
</metadata>
<g transform="translate(0.000000,700.000000) scale(0.100000,-0.100000)" fill="#000000" stroke="none">
<path d="M3240 6984 c-535 -20 -888 -60 -1225 -140 -796 -188 -1309 -563
-1621 -1187 -264 -525 -377 -1179 -377 -2167 1 -1302 192 -2075 647 -2618 128
-152 265 -270 454 -389 155 -98 377 -202 395 -184 5 5 26 76 48 157 56 209 75
267 126 366 132 257 360 438 648 514 93 25 120 27 363 32 291 5 466 -6 711
-44 85 -13 158 -21 162 -17 6 8 39 134 39 151 0 5 -42 26 -92 47 -206 84 -473
230 -623 338 -227 165 -420 424 -513 688 -60 171 -76 265 -77 474 -2 176 -3
193 -23 225 -30 48 -37 89 -36 205 2 253 113 582 238 712 31 31 61 53 74 53
16 0 30 18 62 78 146 282 447 485 772 521 54 6 179 11 279 11 180 0 182 0 204
24 55 59 244 79 484 52 584 -68 1283 -343 1345 -531 13 -37 24 -46 132 -109
351 -203 484 -327 595 -559 60 -126 90 -257 94 -409 2 -109 5 -130 23 -152 34
-44 45 -117 39 -245 -16 -307 -164 -669 -298 -728 -35 -15 -45 -28 -79 -98
-191 -397 -566 -682 -1020 -776 -105 -22 -138 -24 -390 -23 -244 0 -414 12
-533 37 -12 3 -22 -18 -37 -78 -24 -95 -38 -80 145 -151 116 -45 363 -161 470
-221 322 -181 465 -293 572 -445 30 -43 60 -78 66 -78 21 0 273 129 362 185
207 130 413 317 548 497 203 271 357 620 451 1023 99 425 138 838 139 1470 1
843 -81 1425 -275 1935 -111 293 -307 600 -505 791 -408 395 -958 619 -1763
718 -241 30 -924 56 -1200 45z m-2005 -3493 c50 -22 91 -69 105 -119 9 -31 5
-58 -27 -182 -40 -158 -40 -192 0 -250 51 -76 124 -98 200 -61 66 32 95 82
134 228 37 139 56 174 113 203 125 64 272 -46 246 -183 -3 -17 -39 -156 -79
-308 -82 -307 -104 -357 -202 -472 -106 -124 -305 -309 -324 -301 -9 3 -45 14
-81 24 -319 87 -360 103 -360 141 0 16 -55 236 -100 399 -34 121 -25 197 59
509 39 145 78 279 87 297 39 81 142 115 229 75z m-10 -1510 l170 -17 -4 -54
c-1 -30 -4 -56 -6 -58 -1 -2 -103 -4 -226 -5 l-224 -2 -3 69 c-4 96 -4 97 65
90 32 -3 135 -14 228 -23z m184 -281 c5 -25 7 -48 3 -52 -8 -8 -411 -108 -435
-108 -10 0 -18 22 -26 77 -6 42 -9 79 -5 82 8 9 438 58 446 52 4 -4 11 -26 17
-51z m55 -193 c9 -23 16 -47 16 -53 0 -8 -339 -179 -401 -202 -15 -6 -73 130
-63 146 5 7 86 40 179 72 94 32 181 63 195 68 45 19 57 14 74 -31z m100 -187
c14 -22 26 -42 26 -44 0 -2 -79 -68 -176 -146 -200 -160 -182 -156 -246 -57
-31 49 -32 50 -13 64 59 43 352 221 366 222 9 1 28 -17 43 -39z m133 -152 c18
-18 33 -36 33 -41 0 -13 -282 -358 -290 -355 -4 2 -33 27 -65 56 l-58 53 164
159 c90 87 168 159 174 159 5 1 24 -13 42 -31z"></path>
<path d="M1230 3050 c0 -5 5 -10 10 -10 6 0 10 5 10 10 0 6 -4 10 -10 10 -5 0
-10 -4 -10 -10z"></path>
<path d="M5320 4485 c0 -2 57 -32 128 -67 167 -82 182 -89 182 -83 0 11 -123
82 -204 117 -87 37 -106 43 -106 33z"></path>
<path d="M5500 4465 c7 -9 15 -13 17 -11 7 7 -7 26 -19 26 -6 0 -6 -6 2 -15z"></path>
<path d="M3210 4235 c-100 -22 -254 -103 -333 -175 -179 -164 -268 -424 -223
-649 32 -158 89 -265 201 -376 113 -113 242 -178 400 -201 52 -8 173 -14 285
-14 593 0 888 -72 1345 -325 397 -221 469 -249 645 -249 194 0 366 70 499 204
87 86 140 171 178 285 23 69 27 97 27 210 1 148 -17 225 -82 350 -44 85 -176
225 -256 274 -81 48 -556 227 -862 325 -444 141 -790 221 -1357 316 -256 43
-356 48 -467 25z m311 -456 c40 -28 69 -91 69 -151 0 -50 -50 -250 -74 -296
-16 -31 -61 -74 -93 -91 -12 -6 -42 -11 -67 -11 -78 0 -146 80 -146 171 0 44
53 257 74 298 34 63 117 114 174 107 18 -3 46 -15 63 -27z m2065 -549 c43 -27
74 -92 74 -158 0 -66 -45 -246 -73 -297 -32 -56 -87 -96 -140 -102 -57 -7 -99
15 -134 69 -39 59 -38 130 6 280 26 92 41 127 69 159 59 69 134 88 198 49z"></path>
<path d="M6108 3996 c22 -24 62 -73 87 -108 56 -75 65 -84 39 -40 -30 53 -143
192 -155 192 -6 0 7 -20 29 -44z"></path>
<path d="M6310 3685 c0 -20 34 -115 42 -115 10 0 11 -2 -8 56 -16 46 -34 79
-34 59z"></path>
<path d="M6350 3540 c0 -5 5 -10 10 -10 6 0 10 5 10 10 0 6 -4 10 -10 10 -5 0
-10 -4 -10 -10z"></path>
<path d="M6360 3495 c0 -8 5 -15 10 -15 6 0 10 7 10 15 0 8 -4 15 -10 15 -5 0
-10 -7 -10 -15z"></path>
<path d="M6370 3425 c0 -14 5 -25 10 -25 6 0 10 11 10 25 0 14 -4 25 -10 25
-5 0 -10 -11 -10 -25z"></path>
<path d="M6380 3300 c0 -40 4 -70 10 -70 6 0 10 30 10 70 0 40 -4 70 -10 70
-6 0 -10 -30 -10 -70z"></path>
<path d="M6370 3180 c0 -11 5 -20 10 -20 6 0 10 9 10 20 0 11 -4 20 -10 20 -5
0 -10 -9 -10 -20z"></path>
<path d="M6360 3115 c0 -8 5 -15 10 -15 6 0 10 7 10 15 0 8 -4 15 -10 15 -5 0
-10 -7 -10 -15z"></path>
<path d="M6360 3051 c0 -12 5 -21 10 -21 6 0 10 6 10 14 0 8 -4 18 -10 21 -5
3 -10 -3 -10 -14z"></path>
<path d="M6370 2995 c0 -8 5 -15 10 -15 6 0 10 7 10 15 0 8 -4 15 -10 15 -5 0
-10 -7 -10 -15z"></path>
<path d="M6380 2915 c0 -14 5 -25 10 -25 6 0 10 11 10 25 0 14 -4 25 -10 25
-5 0 -10 -11 -10 -25z"></path>
<path d="M6380 2830 c0 -22 5 -40 10 -40 6 0 10 18 10 40 0 22 -4 40 -10 40
-5 0 -10 -18 -10 -40z"></path>
<path d="M6370 2730 c0 -5 5 -10 10 -10 6 0 10 5 10 10 0 6 -4 10 -10 10 -5 0
-10 -4 -10 -10z"></path>
<path d="M6360 2690 c0 -5 5 -10 10 -10 6 0 10 5 10 10 0 6 -4 10 -10 10 -5 0
-10 -4 -10 -10z"></path>
<path d="M6346 2634 c-9 -36 1 -43 14 -10 12 33 12 36 1 36 -5 0 -12 -12 -15
-26z"></path>
<path d="M6274 2478 c-15 -24 -50 -66 -76 -95 -26 -28 -48 -60 -47 -70 0 -17
1 -17 12 1 7 10 35 46 62 80 47 57 92 126 82 126 -2 0 -17 -19 -33 -42z"></path>
<path d="M3730 2340 c-30 -30 -33 -62 -16 -147 43 -212 182 -346 400 -384 139
-24 284 30 399 150 58 59 67 74 67 105 0 48 -36 86 -81 86 -26 0 -46 -13 -104
-69 -90 -85 -138 -106 -232 -99 -86 6 -163 39 -208 89 -43 48 -62 93 -77 181
-9 53 -17 73 -36 88 -32 26 -86 26 -112 0z"></path>
<path d="M6117 2224 c-4 -4 -7 -14 -7 -23 0 -11 3 -12 11 -4 6 6 10 16 7 23
-2 6 -7 8 -11 4z"></path>
<path d="M6091 2162 c-7 -13 -11 -28 -8 -35 2 -7 9 -2 16 11 7 13 11 28 8 35
-2 7 -9 2 -16 -11z"></path>
<path d="M6033 2038 c-6 -7 -13 -20 -17 -28 -32 -73 -194 -270 -292 -355 -70
-61 -151 -121 -181 -134 -27 -12 -42 -34 -16 -24 69 26 266 193 352 298 67 82
131 171 131 184 0 5 6 14 14 20 8 6 16 21 19 31 6 23 3 25 -10 8z"></path>
<path d="M5474 1480 c-12 -5 -25 -13 -28 -18 -9 -15 31 -2 45 14 13 16 12 16
-17 4z"></path>
<path d="M3690 1432 c0 -5 28 -17 62 -27 34 -9 68 -19 75 -22 7 -3 13 -1 13 5
0 5 -28 17 -62 27 -34 9 -68 19 -75 22 -7 3 -13 1 -13 -5z"></path>
<path d="M5344 1415 c-15 -11 -16 -14 -3 -15 8 0 24 7 35 15 15 11 16 14 3 15
-8 0 -24 -7 -35 -15z"></path>
<path d="M5285 1390 c-3 -5 1 -10 9 -10 8 0 18 5 21 10 3 6 -1 10 -9 10 -8 0
-18 -4 -21 -10z"></path>
<path d="M3860 1380 c0 -5 5 -10 10 -10 6 0 10 5 10 10 0 6 -4 10 -10 10 -5 0
-10 -4 -10 -10z"></path>
<path d="M3900 1370 c0 -5 5 -10 10 -10 6 0 10 5 10 10 0 6 -4 10 -10 10 -5 0
-10 -4 -10 -10z"></path>
<path d="M5240 1370 c0 -5 4 -10 9 -10 6 0 13 5 16 10 3 6 -1 10 -9 10 -9 0
-16 -4 -16 -10z"></path>
<path d="M3950 1360 c0 -5 5 -10 10 -10 6 0 10 5 10 10 0 6 -4 10 -10 10 -5 0
-10 -4 -10 -10z"></path>
<path d="M3660 1350 c0 -5 5 -10 10 -10 6 0 10 5 10 10 0 6 -4 10 -10 10 -5 0
-10 -4 -10 -10z"></path>
<path d="M4000 1350 c0 -5 7 -10 15 -10 8 0 15 5 15 10 0 6 -7 10 -15 10 -8 0
-15 -4 -15 -10z"></path>
<path d="M3700 1342 c0 -10 41 -24 49 -17 6 7 0 11 -26 19 -13 4 -23 3 -23 -2z"></path>
<path d="M4050 1340 c0 -5 7 -10 15 -10 8 0 15 5 15 10 0 6 -7 10 -15 10 -8 0
-15 -4 -15 -10z"></path>
<path d="M5140 1340 c0 -5 5 -10 10 -10 6 0 10 5 10 10 0 6 -4 10 -10 10 -5 0
-10 -4 -10 -10z"></path>
<path d="M4110 1330 c0 -5 7 -10 15 -10 8 0 15 5 15 10 0 6 -7 10 -15 10 -8 0
-15 -4 -15 -10z"></path>
<path d="M5090 1330 c0 -5 5 -10 10 -10 6 0 10 5 10 10 0 6 -4 10 -10 10 -5 0
-10 -4 -10 -10z"></path>
<path d="M3770 1320 c0 -5 5 -10 10 -10 6 0 10 5 10 10 0 6 -4 10 -10 10 -5 0
-10 -4 -10 -10z"></path>
<path d="M4170 1320 c0 -5 9 -10 20 -10 11 0 20 5 20 10 0 6 -9 10 -20 10 -11
0 -20 -4 -20 -10z"></path>
<path d="M5050 1320 c0 -5 5 -10 10 -10 6 0 10 5 10 10 0 6 -4 10 -10 10 -5 0
-10 -4 -10 -10z"></path>
<path d="M3810 1312 c0 -6 12 -13 28 -16 15 -4 35 -9 45 -12 9 -3 17 -1 17 4
0 6 -12 13 -27 16 -16 4 -36 9 -45 12 -10 3 -18 1 -18 -4z"></path>
<path d="M4990 1310 c0 -5 5 -10 10 -10 6 0 10 5 10 10 0 6 -4 10 -10 10 -5 0
-10 -4 -10 -10z"></path>
<path d="M3920 1280 c0 -5 5 -10 10 -10 6 0 10 5 10 10 0 6 -4 10 -10 10 -5 0
-10 -4 -10 -10z"></path>
<path d="M3960 1272 c0 -10 41 -24 49 -17 6 7 0 11 -26 19 -13 4 -23 3 -23 -2z"></path>
<path d="M4030 1251 c0 -10 50 -25 58 -16 8 7 1 11 -30 19 -16 3 -28 2 -28 -3z"></path>
<path d="M4110 1230 c0 -5 5 -10 10 -10 6 0 10 5 10 10 0 6 -4 10 -10 10 -5 0
-10 -4 -10 -10z"></path>
<path d="M4150 1220 c0 -5 7 -10 16 -10 8 0 12 5 9 10 -3 6 -10 10 -16 10 -5
0 -9 -4 -9 -10z"></path>
<path d="M2700 970 c0 -5 16 -10 35 -10 19 0 35 -4 35 -10 0 -5 -19 -10 -42
-10 -58 0 -192 -33 -263 -65 -77 -34 -182 -113 -254 -191 -59 -65 -136 -194
-128 -217 2 -6 23 26 47 73 33 62 66 106 130 171 73 75 98 93 180 132 151 72
213 82 500 81 225 0 352 -10 533 -40 23 -4 37 -3 37 4 0 5 -27 13 -60 17 -33
4 -60 11 -60 17 0 14 193 -17 353 -57 15 -4 27 -3 27 2 0 20 -281 74 -505 98
-165 17 -565 21 -565 5z m470 -20 c0 -5 -18 -10 -40 -10 -22 0 -40 5 -40 10 0
6 18 10 40 10 22 0 40 -4 40 -10z m110 -10 c0 -5 -13 -10 -30 -10 -16 0 -30 5
-30 10 0 6 14 10 30 10 17 0 30 -4 30 -10z m90 -10 c0 -5 -13 -10 -30 -10 -16
0 -30 5 -30 10 0 6 14 10 30 10 17 0 30 -4 30 -10z"></path>
<path d="M2613 963 c-13 -2 -23 -9 -23 -15 0 -6 10 -8 23 -4 12 3 32 6 45 6
12 0 22 5 22 10 0 10 -25 11 -67 3z"></path>
<path d="M2470 917 c-99 -43 -181 -99 -253 -170 -61 -61 -151 -190 -145 -208
2 -6 27 25 55 69 29 43 72 99 95 124 73 75 212 160 306 188 23 7 42 17 42 22
0 14 -23 9 -100 -25z"></path>
<path d="M3530 882 c0 -4 57 -20 128 -36 162 -35 444 -128 592 -195 128 -59
161 -70 144 -52 -19 21 -250 119 -391 166 -206 69 -473 136 -473 117z"></path>
<path d="M3790 862 c0 -4 55 -25 123 -46 144 -45 324 -115 422 -163 38 -19 83
-39 98 -43 25 -8 27 -7 17 5 -7 8 -18 15 -24 15 -6 0 -34 12 -61 27 -85 45
-244 108 -407 162 -168 55 -168 55 -168 43z"></path>
<path d="M4475 591 c6 -6 62 -40 125 -76 63 -36 150 -92 193 -123 80 -57 191
-177 180 -195 -3 -5 -19 8 -35 28 -38 45 -49 39 -14 -8 14 -19 26 -39 26 -45
0 -14 39 -16 59 -3 11 7 2 24 -41 77 -68 85 -115 128 -209 191 -134 89 -319
190 -284 154z"></path>
<path d="M4414 581 c4 -5 43 -29 89 -53 124 -67 256 -151 316 -203 62 -53 84
-53 25 1 -92 83 -458 301 -430 255z"></path>
<path d="M2048 495 c-15 -27 -102 -335 -96 -340 14 -12 49 -14 52 -3 2 7 16
58 31 113 14 55 29 108 31 118 3 9 1 17 -4 17 -5 0 -22 -47 -37 -105 -16 -58
-32 -105 -37 -105 -4 0 -8 3 -8 8 0 12 47 184 65 235 15 44 17 85 3 62z"></path>
<path d="M2066 441 c-4 -7 -5 -15 -2 -18 9 -9 19 4 14 18 -4 11 -6 11 -12 0z"></path>
<path d="M2700 40 c0 -5 7 -10 15 -10 8 0 15 5 15 10 0 6 -7 10 -15 10 -8 0
-15 -4 -15 -10z"></path>
<path d="M4150 40 c0 -5 7 -10 15 -10 8 0 15 5 15 10 0 6 -7 10 -15 10 -8 0
-15 -4 -15 -10z"></path>
<path d="M2820 30 c0 -5 11 -10 25 -10 14 0 25 5 25 10 0 6 -11 10 -25 10 -14
0 -25 -4 -25 -10z"></path>
<path d="M4030 30 c0 -5 7 -10 15 -10 8 0 15 5 15 10 0 6 -7 10 -15 10 -8 0
-15 -4 -15 -10z"></path>
</g>
</svg>